<mxfile host="app.diagrams.net" agent="LOL">
  <diagram name="Page-1" id="9DbLZs7WYC37U8g2SxrM">
    <mxGraphModel dx="954" dy="643" grid="0" gridSize="10" guides="1" tooltips="1" connect="1" arrows="1" fold="1" page="1" pageScale="1" pageWidth="850" pageHeight="1100" math="0" shadow="0">
      <root>
        <mxCell id="0" />
        <mxCell id="1" parent="0" />
        <mxCell id="kZRhmQKnwpf-UgMyGPhE-1" value="&lt;div&gt;User uploads&amp;nbsp;&lt;/div&gt;&lt;div&gt;research paper&lt;/div&gt;" style="strokeWidth=1;html=1;shape=mxgraph.flowchart.start_1;whiteSpace=wrap;fontFamily=Inter;fontSource=https%3A%2F%2Ffonts.googleapis.com%2Fcss%3Ffamily%3DInter;labelBorderColor=none;strokeColor=#666666;fillColor=#f5f5f5;fontColor=#333333;" vertex="1" parent="1">
          <mxGeometry x="350.5" y="100" width="150" height="70" as="geometry" />
        </mxCell>
        <mxCell id="kZRhmQKnwpf-UgMyGPhE-10" style="rounded=0;orthogonalLoop=1;jettySize=auto;html=1;exitX=0.25;exitY=1;exitDx=0;exitDy=0;exitPerimeter=0;entryX=1;entryY=0;entryDx=0;entryDy=0;entryPerimeter=0;" edge="1" parent="1" source="kZRhmQKnwpf-UgMyGPhE-4" target="kZRhmQKnwpf-UgMyGPhE-8">
          <mxGeometry relative="1" as="geometry" />
        </mxCell>
        <mxCell id="kZRhmQKnwpf-UgMyGPhE-4" value="" style="sketch=0;points=[[0,0,0],[0.25,0,0],[0.5,0,0],[0.75,0,0],[1,0,0],[0,1,0],[0.25,1,0],[0.5,1,0],[0.75,1,0],[1,1,0],[0,0.25,0],[0,0.5,0],[0,0.75,0],[1,0.25,0],[1,0.5,0],[1,0.75,0]];outlineConnect=0;fillColor=#f5f5f5;strokeColor=#666666;dashed=0;verticalLabelPosition=bottom;verticalAlign=top;align=center;html=1;fontSize=12;fontStyle=0;aspect=fixed;shape=mxgraph.aws4.resourceIcon;resIcon=mxgraph.aws4.augmented_ai;fontColor=#333333;" vertex="1" parent="1">
          <mxGeometry x="385" y="220" width="80" height="81" as="geometry" />
        </mxCell>
        <mxCell id="kZRhmQKnwpf-UgMyGPhE-6" value="&lt;div&gt;AI Manager ingests paper&amp;nbsp;&lt;/div&gt;&lt;div&gt;and picks top 2&amp;nbsp;&lt;/div&gt;&lt;div&gt;debate topics with&amp;nbsp;&lt;/div&gt;&lt;div&gt;For and Against&lt;/div&gt;" style="text;html=1;align=center;verticalAlign=middle;whiteSpace=wrap;rounded=0;fontFamily=Inter;fontSource=https%3A%2F%2Ffonts.googleapis.com%2Fcss%3Ffamily%3DInter;" vertex="1" parent="1">
          <mxGeometry x="474" y="220" width="170" height="80.5" as="geometry" />
        </mxCell>
        <mxCell id="kZRhmQKnwpf-UgMyGPhE-7" style="edgeStyle=orthogonalEdgeStyle;rounded=0;orthogonalLoop=1;jettySize=auto;html=1;exitX=0.5;exitY=1;exitDx=0;exitDy=0;exitPerimeter=0;entryX=0.5;entryY=0;entryDx=0;entryDy=0;entryPerimeter=0;" edge="1" parent="1" source="kZRhmQKnwpf-UgMyGPhE-1" target="kZRhmQKnwpf-UgMyGPhE-4">
          <mxGeometry relative="1" as="geometry" />
        </mxCell>
        <mxCell id="kZRhmQKnwpf-UgMyGPhE-12" style="rounded=0;orthogonalLoop=1;jettySize=auto;html=1;exitX=0;exitY=0;exitDx=0;exitDy=0;exitPerimeter=0;entryX=0.75;entryY=1;entryDx=0;entryDy=0;entryPerimeter=0;" edge="1" parent="1" source="kZRhmQKnwpf-UgMyGPhE-9" target="kZRhmQKnwpf-UgMyGPhE-4">
          <mxGeometry relative="1" as="geometry" />
        </mxCell>
        <mxCell id="kZRhmQKnwpf-UgMyGPhE-11" style="rounded=0;orthogonalLoop=1;jettySize=auto;html=1;entryX=0.25;entryY=1;entryDx=0;entryDy=0;entryPerimeter=0;exitX=1;exitY=0;exitDx=0;exitDy=0;exitPerimeter=0;" edge="1" parent="1" source="kZRhmQKnwpf-UgMyGPhE-8" target="kZRhmQKnwpf-UgMyGPhE-4">
          <mxGeometry relative="1" as="geometry" />
        </mxCell>
        <mxCell id="kZRhmQKnwpf-UgMyGPhE-13" style="rounded=0;orthogonalLoop=1;jettySize=auto;html=1;exitX=0.75;exitY=1;exitDx=0;exitDy=0;exitPerimeter=0;entryX=0;entryY=0;entryDx=0;entryDy=0;entryPerimeter=0;" edge="1" parent="1" source="kZRhmQKnwpf-UgMyGPhE-4" target="kZRhmQKnwpf-UgMyGPhE-9">
          <mxGeometry relative="1" as="geometry" />
        </mxCell>
        <mxCell id="kZRhmQKnwpf-UgMyGPhE-19" value="" style="group" vertex="1" connectable="0" parent="1">
          <mxGeometry x="352" y="440" width="147" height="148" as="geometry" />
        </mxCell>
        <mxCell id="kZRhmQKnwpf-UgMyGPhE-15" value="&lt;div&gt;&lt;font data-font-src=&quot;https://fonts.googleapis.com/css?family=Inter&quot; face=&quot;Inter&quot;&gt;Vector DB such as Weaviate or FAISS&amp;nbsp;&lt;/font&gt;&lt;/div&gt;&lt;div&gt;&lt;font data-font-src=&quot;https://fonts.googleapis.com/css?family=Inter&quot; face=&quot;Inter&quot;&gt;for RAG&lt;/font&gt;&lt;/div&gt;" style="text;html=1;align=center;verticalAlign=middle;whiteSpace=wrap;rounded=0;" vertex="1" parent="kZRhmQKnwpf-UgMyGPhE-19">
          <mxGeometry y="78" width="147" height="70" as="geometry" />
        </mxCell>
        <mxCell id="kZRhmQKnwpf-UgMyGPhE-16" value="" style="strokeWidth=2;html=1;shape=mxgraph.flowchart.database;whiteSpace=wrap;fillColor=#f5f5f5;fontColor=#333333;strokeColor=#666666;" vertex="1" parent="kZRhmQKnwpf-UgMyGPhE-19">
          <mxGeometry x="36" width="75" height="70" as="geometry" />
        </mxCell>
        <mxCell id="kZRhmQKnwpf-UgMyGPhE-20" value="" style="endArrow=classic;startArrow=classic;html=1;rounded=0;entryX=0;entryY=1;entryDx=0;entryDy=0;entryPerimeter=0;exitX=1;exitY=0.15;exitDx=0;exitDy=0;exitPerimeter=0;" edge="1" parent="1" source="kZRhmQKnwpf-UgMyGPhE-16" target="kZRhmQKnwpf-UgMyGPhE-9">
          <mxGeometry width="50" height="50" relative="1" as="geometry">
            <mxPoint x="400" y="460" as="sourcePoint" />
            <mxPoint x="450" y="410" as="targetPoint" />
          </mxGeometry>
        </mxCell>
        <mxCell id="kZRhmQKnwpf-UgMyGPhE-21" value="" style="endArrow=classic;startArrow=classic;html=1;rounded=0;entryX=1;entryY=1;entryDx=0;entryDy=0;entryPerimeter=0;exitX=0;exitY=0.15;exitDx=0;exitDy=0;exitPerimeter=0;" edge="1" parent="1" source="kZRhmQKnwpf-UgMyGPhE-16" target="kZRhmQKnwpf-UgMyGPhE-8">
          <mxGeometry width="50" height="50" relative="1" as="geometry">
            <mxPoint x="300" y="560" as="sourcePoint" />
            <mxPoint x="350" y="510" as="targetPoint" />
          </mxGeometry>
        </mxCell>
        <mxCell id="kZRhmQKnwpf-UgMyGPhE-22" value="" style="group" vertex="1" connectable="0" parent="1">
          <mxGeometry x="120" y="340" width="210" height="78" as="geometry" />
        </mxCell>
        <mxCell id="kZRhmQKnwpf-UgMyGPhE-8" value="" style="sketch=0;points=[[0,0,0],[0.25,0,0],[0.5,0,0],[0.75,0,0],[1,0,0],[0,1,0],[0.25,1,0],[0.5,1,0],[0.75,1,0],[1,1,0],[0,0.25,0],[0,0.5,0],[0,0.75,0],[1,0.25,0],[1,0.5,0],[1,0.75,0]];outlineConnect=0;fillColor=#dae8fc;strokeColor=#6c8ebf;dashed=0;verticalLabelPosition=bottom;verticalAlign=top;align=center;html=1;fontSize=12;fontStyle=0;aspect=fixed;shape=mxgraph.aws4.resourceIcon;resIcon=mxgraph.aws4.augmented_ai;" vertex="1" parent="kZRhmQKnwpf-UgMyGPhE-22">
          <mxGeometry x="132" width="78" height="78" as="geometry" />
        </mxCell>
        <mxCell id="kZRhmQKnwpf-UgMyGPhE-18" value="&lt;div&gt;&lt;font data-font-src=&quot;https://fonts.googleapis.com/css?family=Inter&quot; face=&quot;Inter&quot;&gt;AI 1 (say Claude) who will be FOR&amp;nbsp;&lt;/font&gt;&lt;/div&gt;&lt;div&gt;&lt;font data-font-src=&quot;https://fonts.googleapis.com/css?family=Inter&quot; face=&quot;Inter&quot;&gt;the motion&lt;/font&gt;&lt;/div&gt;" style="text;html=1;align=center;verticalAlign=middle;whiteSpace=wrap;rounded=0;" vertex="1" parent="kZRhmQKnwpf-UgMyGPhE-22">
          <mxGeometry y="12" width="120" height="54" as="geometry" />
        </mxCell>
        <mxCell id="kZRhmQKnwpf-UgMyGPhE-23" value="" style="group" vertex="1" connectable="0" parent="1">
          <mxGeometry x="520" y="340" width="220" height="78" as="geometry" />
        </mxCell>
        <mxCell id="kZRhmQKnwpf-UgMyGPhE-9" value="" style="sketch=0;points=[[0,0,0],[0.25,0,0],[0.5,0,0],[0.75,0,0],[1,0,0],[0,1,0],[0.25,1,0],[0.5,1,0],[0.75,1,0],[1,1,0],[0,0.25,0],[0,0.5,0],[0,0.75,0],[1,0.25,0],[1,0.5,0],[1,0.75,0]];outlineConnect=0;fillColor=#e1d5e7;strokeColor=#9673a6;dashed=0;verticalLabelPosition=bottom;verticalAlign=top;align=center;html=1;fontSize=12;fontStyle=0;aspect=fixed;shape=mxgraph.aws4.resourceIcon;resIcon=mxgraph.aws4.augmented_ai;" vertex="1" parent="kZRhmQKnwpf-UgMyGPhE-23">
          <mxGeometry width="78" height="78" as="geometry" />
        </mxCell>
        <mxCell id="kZRhmQKnwpf-UgMyGPhE-17" value="&lt;div&gt;&lt;font data-font-src=&quot;https://fonts.googleapis.com/css?family=Inter&quot; face=&quot;Inter&quot;&gt;AI 2 (say OpenAI)&amp;nbsp;&lt;/font&gt;&lt;/div&gt;&lt;div&gt;&lt;font data-font-src=&quot;https://fonts.googleapis.com/css?family=Inter&quot; face=&quot;Inter&quot;&gt;who will be AGAINST&lt;/font&gt;&lt;/div&gt;&lt;div&gt;&lt;font data-font-src=&quot;https://fonts.googleapis.com/css?family=Inter&quot; face=&quot;Inter&quot;&gt;&amp;nbsp;the motion&lt;/font&gt;&lt;/div&gt;" style="text;html=1;align=center;verticalAlign=middle;whiteSpace=wrap;rounded=0;" vertex="1" parent="kZRhmQKnwpf-UgMyGPhE-23">
          <mxGeometry x="90" y="10" width="130" height="56" as="geometry" />
        </mxCell>
      </root>
    </mxGraphModel>
  </diagram>
</mxfile>
